<?xml version="1.0" standalone="no"?>
<svg width="1056" height="816" xmlns="http://www.w3.org/2000/svg" id="svgvm1"><g transform="translate(5,5)" style="font-family: sans-serif;"><g transform="translate(0,1)"><rect class="tactic-header-background" width="1046" height="57.57142857142857" fill="#dddddd" stroke="#6B7279"/><g><g class="tactic reconnaissance" transform="translate(0, 0)"><g class="techniques"><g class="technique T1595" transform="translate(0, 57.57142857142857)"><rect class="cell" height="57.57142857142857" width="74.71428571428571" fill="#31a354" stroke="#6B7279"/><polygon class="sidebar" transform="translate(0, 57.57142857142857)" points="0,0 12,0 12,12" fill="#6B7279" visibility="visible"/><text font-size="3.7492857142857137" fill="black"><tspan x="4" y="17.619047619047617">T1595:</tspan><tspan x="4" y="32.285714285714285">Active</tspan><tspan x="4" y="46.95238095238095">Scanning</tspan></text></g><g class="technique T1589" transform="translate(0, 172.7142857142857)"><rect class="cell" height="57.57142857142857" width="74.71428571428571" fill="#31a354" stroke="#6B7279"/><polygon class="sidebar" transform="translate(0, 57.57142857142857)" points="0,0 12,0 12,0" fill="#6B7279" visibility="hidden"/><text font-size="3.7492857142857137" fill="black"><tspan x="4" y="10.071428571428571">T1589:</tspan><tspan x="4" y="24.214285714285715">Gather Victim</tspan><tspan x="4" y="38.357142857142854">Identity</tspan><tspan x="4" y="52.5">Information</tspan></text></g></g><g class="subtechniques"><g class="subtechnique T1595.001" transform="translate(15, 115.14285714285714)"><rect class="cell" height="57.57142857142857" width="59.71428571428571" fill="#31a354" stroke="#6B7279"/><rect class="cell" height="57.57142857142857" width="3" transform="translate(-3, 0)" fill="#6B7279" stroke="#6B7279"/><text font-size="3.7492857142857137" fill="black"><tspan x="4" y="16.619047619047617">T1595.001:</tspan><tspan x="4" y="31.285714285714285">Scanning</tspan><tspan x="4" y="45.95238095238095">IP Blocks</tspan></text></g></g><g class="tactic-label"><text font-size="6.909693877551019" fill="black" font-weight="bold"><tspan text-anchor="middle" x="37.357142857142854" y="31.285714285714285">Reconnaissance</tspan></text></g></g><g class="tactic resource-development" transform="translate(74.71428571428571, 0)"><g class="techniques"><g class="technique T1650" transform="translate(0, 57.57142857142857)"><rect class="cell" height="57.57142857142857" width="74.71428571428571" fill="#31a354" stroke="#6B7279"/><polygon class="sidebar" transform="translate(0, 57.57142857142857)" points="0,0 12,0 12,0" fill="#6B7279" visibility="hidden"/><text font-size="3.7492857142857137" fill="black"><tspan x="4" y="17.619047619047617">T1650:</tspan><tspan x="4" y="32.285714285714285">Acquire</tspan><tspan x="4" y="46.95238095238095">Access</tspan></text></g><g class="technique T1585" transform="translate(0, 115.14285714285714)"><rect class="cell" height="57.57142857142857" width="74.71428571428571" fill="#31a354" stroke="#6B7279"/><polygon class="sidebar" transform="translate(0, 57.57142857142857)" points="0,0 12,0 12,0" fill="#6B7279" visibility="hidden"/><text font-size="3.7492857142857137" fill="black"><tspan x="4" y="17.619047619047617">T1585:</tspan><tspan x="4" y="32.285714285714285">Establish</tspan><tspan x="4" y="46.95238095238095">Accounts</tspan></text></g><g class="technique T1588" transform="translate(0, 172.7142857142857)"><rect class="cell" height="57.57142857142857" width="74.71428571428571" fill="#31a354" stroke="#6B7279"/><polygon class="sidebar" transform="translate(0, 57.57142857142857)" points="0,0 12,0 12,12" fill="#6B7279" visibility="visible"/><text font-size="3.7492857142857137" fill="black"><tspan x="4" y="16.619047619047617">T1588:</tspan><tspan x="4" y="31.285714285714285">Obtain</tspan><tspan x="4" y="45.95238095238095">Capabilities</tspan></text></g></g><g class="subtechniques"><g class="subtechnique T1588.002" transform="translate(15, 230.28571428571428)"><rect class="cell" height="57.57142857142857" width="59.71428571428571" fill="#31a354" stroke="#6B7279"/><rect class="cell" height="57.57142857142857" width="3" transform="translate(-3, 0)" fill="#6B7279" stroke="#6B7279"/><text font-size="3.7492857142857137" fill="black"><tspan x="4" y="24.035714285714285">T1588.002:</tspan><tspan x="4" y="38.535714285714285">Tool</tspan></text></g></g><g class="tactic-label"><text font-size="6.909693877551019" fill="black" font-weight="bold"><tspan text-anchor="middle" x="37.357142857142854" y="24.035714285714285">Resource</tspan><tspan text-anchor="middle" x="37.357142857142854" y="38.535714285714285">Development</tspan></text></g></g><g class="tactic initial-access" transform="translate(149.42857142857142, 0)"><g class="techniques"><g class="technique T1133" transform="translate(0, 57.57142857142857)"><rect class="cell" height="57.57142857142857" width="74.71428571428571" fill="#31a354" stroke="#6B7279"/><polygon class="sidebar" transform="translate(0, 57.57142857142857)" points="0,0 12,0 12,0" fill="#6B7279" visibility="hidden"/><text font-size="3.7492857142857137" fill="black"><tspan x="4" y="11.071428571428571">T1133:</tspan><tspan x="4" y="25.214285714285715">External</tspan><tspan x="4" y="39.357142857142854">Remote</tspan><tspan x="4" y="53.5">Services</tspan></text></g><g class="technique T1199" transform="translate(0, 115.14285714285714)"><rect class="cell" height="57.57142857142857" width="74.71428571428571" fill="#31a354" stroke="#6B7279"/><polygon class="sidebar" transform="translate(0, 57.57142857142857)" points="0,0 12,0 12,0" fill="#6B7279" visibility="hidden"/><text font-size="3.7492857142857137" fill="black"><tspan x="4" y="16.619047619047617">T1199:</tspan><tspan x="4" y="31.285714285714285">Trusted</tspan><tspan x="4" y="45.95238095238095">Relationship</tspan></text></g><g class="technique T1078" transform="translate(0, 172.7142857142857)"><rect class="cell" height="57.57142857142857" width="74.71428571428571" fill="#31a354" stroke="#6B7279"/><polygon class="sidebar" transform="translate(0, 57.57142857142857)" points="0,0 12,0 12,12" fill="#6B7279" visibility="visible"/><text font-size="3.7492857142857137" fill="black"><tspan x="4" y="17.619047619047617">T1078:</tspan><tspan x="4" y="32.285714285714285">Valid</tspan><tspan x="4" y="46.95238095238095">Accounts</tspan></text></g></g><g class="subtechniques"><g class="subtechnique T1078.004" transform="translate(15, 230.28571428571428)"><rect class="cell" height="57.57142857142857" width="59.71428571428571" fill="#31a354" stroke="#6B7279"/><rect class="cell" height="57.57142857142857" width="3" transform="translate(-3, 0)" fill="#6B7279" stroke="#6B7279"/><text font-size="3.7492857142857137" fill="black"><tspan x="4" y="16.619047619047617">T1078.004:</tspan><tspan x="4" y="31.285714285714285">Cloud</tspan><tspan x="4" y="45.95238095238095">Accounts</tspan></text></g><g class="subtechnique T1078.002" transform="translate(15, 287.8571428571429)"><rect class="cell" height="57.57142857142857" width="59.71428571428571" fill="#31a354" stroke="#6B7279"/><rect class="cell" height="57.57142857142857" width="3" transform="translate(-3, 0)" fill="#6B7279" stroke="#6B7279"/><text font-size="3.7492857142857137" fill="black"><tspan x="4" y="16.619047619047617">T1078.002:</tspan><tspan x="4" y="31.285714285714285">Domain</tspan><tspan x="4" y="45.95238095238095">Accounts</tspan></text></g></g><g class="tactic-label"><text font-size="6.909693877551019" fill="black" font-weight="bold"><tspan text-anchor="middle" x="37.357142857142854" y="25.035714285714285">Initial</tspan><tspan text-anchor="middle" x="37.357142857142854" y="39.535714285714285">Access</tspan></text></g></g><g class="tactic execution" transform="translate(224.1428571428571, 0)"><g class="techniques"><g class="technique T1106" transform="translate(0, 57.57142857142857)"><rect class="cell" height="57.57142857142857" width="74.71428571428571" fill="#31a354" stroke="#6B7279"/><polygon class="sidebar" transform="translate(0, 57.57142857142857)" points="0,0 12,0 12,0" fill="#6B7279" visibility="hidden"/><text font-size="3.7492857142857137" fill="black"><tspan x="4" y="17.619047619047617">T1106:</tspan><tspan x="4" y="32.285714285714285">Native</tspan><tspan x="4" y="46.95238095238095">API</tspan></text></g></g><g class="subtechniques"/><g class="tactic-label"><text font-size="6.909693877551019" fill="black" font-weight="bold"><tspan text-anchor="middle" x="37.357142857142854" y="32.285714285714285">Execution</tspan></text></g></g><g class="tactic persistence" transform="translate(298.85714285714283, 0)"><g class="techniques"><g class="technique T1098" transform="translate(0, 57.57142857142857)"><rect class="cell" height="57.57142857142857" width="74.71428571428571" fill="#31a354" stroke="#6B7279"/><polygon class="sidebar" transform="translate(0, 57.57142857142857)" points="0,0 12,0 12,12" fill="#6B7279" visibility="visible"/><text font-size="3.7492857142857137" fill="black"><tspan x="4" y="16.619047619047617">T1098:</tspan><tspan x="4" y="31.285714285714285">Account</tspan><tspan x="4" y="45.95238095238095">Manipulation</tspan></text></g><g class="technique T1136" transform="translate(0, 172.7142857142857)"><rect class="cell" height="57.57142857142857" width="74.71428571428571" fill="#31a354" stroke="#6B7279"/><polygon class="sidebar" transform="translate(0, 57.57142857142857)" points="0,0 12,0 12,12" fill="#6B7279" visibility="visible"/><text font-size="3.7492857142857137" fill="black"><tspan x="4" y="17.619047619047617">T1136:</tspan><tspan x="4" y="32.285714285714285">Create</tspan><tspan x="4" y="46.95238095238095">Account</tspan></text></g><g class="technique T1546" transform="translate(0, 287.8571428571429)"><rect class="cell" height="57.57142857142857" width="74.71428571428571" fill="#31a354" stroke="#6B7279"/><polygon class="sidebar" transform="translate(0, 57.57142857142857)" points="0,0 12,0 12,12" fill="#6B7279" visibility="visible"/><text font-size="3.7492857142857137" fill="black"><tspan x="4" y="11.071428571428571">T1546:</tspan><tspan x="4" y="25.214285714285715">Event</tspan><tspan x="4" y="39.357142857142854">Triggered</tspan><tspan x="4" y="53.5">Execution</tspan></text></g><g class="technique T1133" transform="translate(0, 403)"><rect class="cell" height="57.57142857142857" width="74.71428571428571" fill="#31a354" stroke="#6B7279"/><polygon class="sidebar" transform="translate(0, 57.57142857142857)" points="0,0 12,0 12,0" fill="#6B7279" visibility="hidden"/><text font-size="3.7492857142857137" fill="black"><tspan x="4" y="11.071428571428571">T1133:</tspan><tspan x="4" y="25.214285714285715">External</tspan><tspan x="4" y="39.357142857142854">Remote</tspan><tspan x="4" y="53.5">Services</tspan></text></g><g class="technique T1078" transform="translate(0, 460.57142857142856)"><rect class="cell" height="57.57142857142857" width="74.71428571428571" fill="#31a354" stroke="#6B7279"/><polygon class="sidebar" transform="translate(0, 57.57142857142857)" points="0,0 12,0 12,12" fill="#6B7279" visibility="visible"/><text font-size="3.7492857142857137" fill="black"><tspan x="4" y="17.619047619047617">T1078:</tspan><tspan x="4" y="32.285714285714285">Valid</tspan><tspan x="4" y="46.95238095238095">Accounts</tspan></text></g></g><g class="subtechniques"><g class="subtechnique T1098.005" transform="translate(15, 115.14285714285714)"><rect class="cell" height="57.57142857142857" width="59.71428571428571" fill="#31a354" stroke="#6B7279"/><rect class="cell" height="57.57142857142857" width="3" transform="translate(-3, 0)" fill="#6B7279" stroke="#6B7279"/><text font-size="3.7492857142857137" fill="black"><tspan x="4" y="15.619047619047617">T1098.005:</tspan><tspan x="4" y="30.285714285714285">Device</tspan><tspan x="4" y="44.95238095238095">Registration</tspan></text></g><g class="subtechnique T1136.001" transform="translate(15, 230.28571428571428)"><rect class="cell" height="57.57142857142857" width="59.71428571428571" fill="#31a354" stroke="#6B7279"/><rect class="cell" height="57.57142857142857" width="3" transform="translate(-3, 0)" fill="#6B7279" stroke="#6B7279"/><text font-size="3.7492857142857137" fill="black"><tspan x="4" y="16.619047619047617">T1136.001:</tspan><tspan x="4" y="31.285714285714285">Local</tspan><tspan x="4" y="45.95238095238095">Account</tspan></text></g><g class="subtechnique T1546.003" transform="translate(15, 345.4285714285714)"><rect class="cell" height="57.57142857142857" width="59.71428571428571" fill="#31a354" stroke="#6B7279"/><rect class="cell" height="57.57142857142857" width="3" transform="translate(-3, 0)" fill="#6B7279" stroke="#6B7279"/><text font-size="3.7492857142857137" fill="black"><tspan x="4" y="9.071428571428571">T1546.003:</tspan><tspan x="4" y="23.214285714285715">Windows Management</tspan><tspan x="4" y="37.357142857142854">Instrumentation</tspan><tspan x="4" y="51.5">Event Subscription</tspan></text></g><g class="subtechnique T1078.004" transform="translate(15, 518.1428571428572)"><rect class="cell" height="57.57142857142857" width="59.71428571428571" fill="#31a354" stroke="#6B7279"/><rect class="cell" height="57.57142857142857" width="3" transform="translate(-3, 0)" fill="#6B7279" stroke="#6B7279"/><text font-size="3.7492857142857137" fill="black"><tspan x="4" y="16.619047619047617">T1078.004:</tspan><tspan x="4" y="31.285714285714285">Cloud</tspan><tspan x="4" y="45.95238095238095">Accounts</tspan></text></g><g class="subtechnique T1078.002" transform="translate(15, 575.7142857142858)"><rect class="cell" height="57.57142857142857" width="59.71428571428571" fill="#31a354" stroke="#6B7279"/><rect class="cell" height="57.57142857142857" width="3" transform="translate(-3, 0)" fill="#6B7279" stroke="#6B7279"/><text font-size="3.7492857142857137" fill="black"><tspan x="4" y="16.619047619047617">T1078.002:</tspan><tspan x="4" y="31.285714285714285">Domain</tspan><tspan x="4" y="45.95238095238095">Accounts</tspan></text></g></g><g class="tactic-label"><text font-size="6.909693877551019" fill="black" font-weight="bold"><tspan text-anchor="middle" x="37.357142857142854" y="31.285714285714285">Persistence</tspan></text></g></g><g class="tactic privilege-escalation" transform="translate(373.57142857142856, 0)"><g class="techniques"><g class="technique T1548" transform="translate(0, 57.57142857142857)"><rect class="cell" height="57.57142857142857" width="74.71428571428571" fill="#31a354" stroke="#6B7279"/><polygon class="sidebar" transform="translate(0, 57.57142857142857)" points="0,0 12,0 12,0" fill="#6B7279" visibility="hidden"/><text font-size="3.7492857142857137" fill="black"><tspan x="4" y="10.071428571428571">T1548: Abuse</tspan><tspan x="4" y="24.214285714285715">Elevation</tspan><tspan x="4" y="38.357142857142854">Control</tspan><tspan x="4" y="52.5">Mechanism</tspan></text></g><g class="technique T1546" transform="translate(0, 115.14285714285714)"><rect class="cell" height="57.57142857142857" width="74.71428571428571" fill="#31a354" stroke="#6B7279"/><polygon class="sidebar" transform="translate(0, 57.57142857142857)" points="0,0 12,0 12,12" fill="#6B7279" visibility="visible"/><text font-size="3.7492857142857137" fill="black"><tspan x="4" y="11.071428571428571">T1546:</tspan><tspan x="4" y="25.214285714285715">Event</tspan><tspan x="4" y="39.357142857142854">Triggered</tspan><tspan x="4" y="53.5">Execution</tspan></text></g></g><g class="subtechniques"><g class="subtechnique T1546.003" transform="translate(15, 172.7142857142857)"><rect class="cell" height="57.57142857142857" width="59.71428571428571" fill="#31a354" stroke="#6B7279"/><rect class="cell" height="57.57142857142857" width="3" transform="translate(-3, 0)" fill="#6B7279" stroke="#6B7279"/><text font-size="3.7492857142857137" fill="black"><tspan x="4" y="9.071428571428571">T1546.003:</tspan><tspan x="4" y="23.214285714285715">Windows Management</tspan><tspan x="4" y="37.357142857142854">Instrumentation</tspan><tspan x="4" y="51.5">Event Subscription</tspan></text></g></g><g class="tactic-label"><text font-size="6.909693877551019" fill="black" font-weight="bold"><tspan text-anchor="middle" x="37.357142857142854" y="24.035714285714285">Privilege</tspan><tspan text-anchor="middle" x="37.357142857142854" y="38.535714285714285">Escalation</tspan></text></g></g><g class="tactic defense-evasion" transform="translate(448.2857142857142, 0)"><g class="techniques"><g class="technique T1548" transform="translate(0, 57.57142857142857)"><rect class="cell" height="57.57142857142857" width="74.71428571428571" fill="#31a354" stroke="#6B7279"/><polygon class="sidebar" transform="translate(0, 57.57142857142857)" points="0,0 12,0 12,0" fill="#6B7279" visibility="hidden"/><text font-size="3.7492857142857137" fill="black"><tspan x="4" y="10.071428571428571">T1548: Abuse</tspan><tspan x="4" y="24.214285714285715">Elevation</tspan><tspan x="4" y="38.357142857142854">Control</tspan><tspan x="4" y="52.5">Mechanism</tspan></text></g><g class="technique T1562" transform="translate(0, 115.14285714285714)"><rect class="cell" height="57.57142857142857" width="74.71428571428571" fill="#31a354" stroke="#6B7279"/><polygon class="sidebar" transform="translate(0, 57.57142857142857)" points="0,0 12,0 12,12" fill="#6B7279" visibility="visible"/><text font-size="3.7492857142857137" fill="black"><tspan x="4" y="17.619047619047617">T1562:</tspan><tspan x="4" y="32.285714285714285">Impair</tspan><tspan x="4" y="46.95238095238095">Defenses</tspan></text></g><g class="technique T1070" transform="translate(0, 287.8571428571429)"><rect class="cell" height="57.57142857142857" width="74.71428571428571" fill="#31a354" stroke="#6B7279"/><polygon class="sidebar" transform="translate(0, 57.57142857142857)" points="0,0 12,0 12,12" fill="#6B7279" visibility="visible"/><text font-size="3.7492857142857137" fill="black"><tspan x="4" y="17.619047619047617">T1070:</tspan><tspan x="4" y="32.285714285714285">Indicator</tspan><tspan x="4" y="46.95238095238095">Removal</tspan></text></g><g class="technique T1036" transform="translate(0, 460.57142857142856)"><rect class="cell" height="57.57142857142857" width="74.71428571428571" fill="#31a354" stroke="#6B7279"/><polygon class="sidebar" transform="translate(0, 57.57142857142857)" points="0,0 12,0 12,0" fill="#6B7279" visibility="hidden"/><text font-size="3.7492857142857137" fill="black"><tspan x="4" y="24.035714285714285">T1036:</tspan><tspan x="4" y="38.535714285714285">Masquerading</tspan></text></g><g class="technique T1027" transform="translate(0, 518.1428571428572)"><rect class="cell" height="57.57142857142857" width="74.71428571428571" fill="#31a354" stroke="#6B7279"/><polygon class="sidebar" transform="translate(0, 57.57142857142857)" points="0,0 12,0 12,0" fill="#6B7279" visibility="hidden"/><text font-size="3.7492857142857137" fill="black"><tspan x="4" y="10.071428571428571">T1027:</tspan><tspan x="4" y="24.214285714285715">Obfuscated</tspan><tspan x="4" y="38.357142857142854">Files or</tspan><tspan x="4" y="52.5">Information</tspan></text></g><g class="technique T1078" transform="translate(0, 575.7142857142858)"><rect class="cell" height="57.57142857142857" width="74.71428571428571" fill="#31a354" stroke="#6B7279"/><polygon class="sidebar" transform="translate(0, 57.57142857142857)" points="0,0 12,0 12,12" fill="#6B7279" visibility="visible"/><text font-size="3.7492857142857137" fill="black"><tspan x="4" y="17.619047619047617">T1078:</tspan><tspan x="4" y="32.285714285714285">Valid</tspan><tspan x="4" y="46.95238095238095">Accounts</tspan></text></g></g><g class="subtechniques"><g class="subtechnique T1562.001" transform="translate(15, 172.7142857142857)"><rect class="cell" height="57.57142857142857" width="59.71428571428571" fill="#31a354" stroke="#6B7279"/><rect class="cell" height="57.57142857142857" width="3" transform="translate(-3, 0)" fill="#6B7279" stroke="#6B7279"/><text font-size="3.7492857142857137" fill="black"><tspan x="4" y="10.071428571428571">T1562.001:</tspan><tspan x="4" y="24.214285714285715">Disable</tspan><tspan x="4" y="38.357142857142854">or Modify</tspan><tspan x="4" y="52.5">Tools</tspan></text></g><g class="subtechnique T1562.011" transform="translate(15, 230.28571428571428)"><rect class="cell" height="57.57142857142857" width="59.71428571428571" fill="#31a354" stroke="#6B7279"/><rect class="cell" height="57.57142857142857" width="3" transform="translate(-3, 0)" fill="#6B7279" stroke="#6B7279"/><text font-size="3.7492857142857137" fill="black"><tspan x="4" y="10.071428571428571">T1562.011:</tspan><tspan x="4" y="24.214285714285715">Spoof</tspan><tspan x="4" y="38.357142857142854">Security</tspan><tspan x="4" y="52.5">Alerting</tspan></text></g><g class="subtechnique T1070.001" transform="translate(15, 345.4285714285714)"><rect class="cell" height="57.57142857142857" width="59.71428571428571" fill="#31a354" stroke="#6B7279"/><rect class="cell" height="57.57142857142857" width="3" transform="translate(-3, 0)" fill="#6B7279" stroke="#6B7279"/><text font-size="3.7492857142857137" fill="black"><tspan x="4" y="10.071428571428571">T1070.001:</tspan><tspan x="4" y="24.214285714285715">Clear</tspan><tspan x="4" y="38.357142857142854">Windows</tspan><tspan x="4" y="52.5">Event Logs</tspan></text></g><g class="subtechnique T1070.004" transform="translate(15, 403)"><rect class="cell" height="57.57142857142857" width="59.71428571428571" fill="#31a354" stroke="#6B7279"/><rect class="cell" height="57.57142857142857" width="3" transform="translate(-3, 0)" fill="#6B7279" stroke="#6B7279"/><text font-size="3.7492857142857137" fill="black"><tspan x="4" y="16.619047619047617">T1070.004:</tspan><tspan x="4" y="31.285714285714285">File</tspan><tspan x="4" y="45.95238095238095">Deletion</tspan></text></g><g class="subtechnique T1078.004" transform="translate(15, 633.2857142857142)"><rect class="cell" height="57.57142857142857" width="59.71428571428571" fill="#31a354" stroke="#6B7279"/><rect class="cell" height="57.57142857142857" width="3" transform="translate(-3, 0)" fill="#6B7279" stroke="#6B7279"/><text font-size="3.7492857142857137" fill="black"><tspan x="4" y="16.619047619047617">T1078.004:</tspan><tspan x="4" y="31.285714285714285">Cloud</tspan><tspan x="4" y="45.95238095238095">Accounts</tspan></text></g><g class="subtechnique T1078.001" transform="translate(15, 690.8571428571428)"><rect class="cell" height="57.57142857142857" width="59.71428571428571" fill="#31a354" stroke="#6B7279"/><rect class="cell" height="57.57142857142857" width="3" transform="translate(-3, 0)" fill="#6B7279" stroke="#6B7279"/><text font-size="3.7492857142857137" fill="black"><tspan x="4" y="16.619047619047617">T1078.001:</tspan><tspan x="4" y="31.285714285714285">Default</tspan><tspan x="4" y="45.95238095238095">Accounts</tspan></text></g><g class="subtechnique T1078.002" transform="translate(15, 748.4285714285714)"><rect class="cell" height="57.57142857142857" width="59.71428571428571" fill="#31a354" stroke="#6B7279"/><rect class="cell" height="57.57142857142857" width="3" transform="translate(-3, 0)" fill="#6B7279" stroke="#6B7279"/><text font-size="3.7492857142857137" fill="black"><tspan x="4" y="16.619047619047617">T1078.002:</tspan><tspan x="4" y="31.285714285714285">Domain</tspan><tspan x="4" y="45.95238095238095">Accounts</tspan></text></g></g><g class="tactic-label"><text font-size="6.909693877551019" fill="black" font-weight="bold"><tspan text-anchor="middle" x="37.357142857142854" y="25.035714285714285">Defense</tspan><tspan text-anchor="middle" x="37.357142857142854" y="39.535714285714285">Evasion</tspan></text></g></g><g class="tactic credential-access" transform="translate(523, 0)"><g class="techniques"><g class="technique T1555" transform="translate(0, 57.57142857142857)"><rect class="cell" height="57.57142857142857" width="74.71428571428571" fill="#31a354" stroke="#6B7279"/><polygon class="sidebar" transform="translate(0, 57.57142857142857)" points="0,0 12,0 12,12" fill="#6B7279" visibility="visible"/><text font-size="3.7492857142857137" fill="black"><tspan x="4" y="10.071428571428571">T1555:</tspan><tspan x="4" y="24.214285714285715">Credentials</tspan><tspan x="4" y="38.357142857142854">from Password</tspan><tspan x="4" y="52.5">Stores</tspan></text></g><g class="technique T1552" transform="translate(0, 172.7142857142857)"><rect class="cell" height="57.57142857142857" width="74.71428571428571" fill="#31a354" stroke="#6B7279"/><polygon class="sidebar" transform="translate(0, 57.57142857142857)" points="0,0 12,0 12,12" fill="#6B7279" visibility="visible"/><text font-size="3.7492857142857137" fill="black"><tspan x="4" y="16.619047619047617">T1552:</tspan><tspan x="4" y="31.285714285714285">Unsecured</tspan><tspan x="4" y="45.95238095238095">Credentials</tspan></text></g></g><g class="subtechniques"><g class="subtechnique T1555.005" transform="translate(15, 115.14285714285714)"><rect class="cell" height="57.57142857142857" width="59.71428571428571" fill="#31a354" stroke="#6B7279"/><rect class="cell" height="57.57142857142857" width="3" transform="translate(-3, 0)" fill="#6B7279" stroke="#6B7279"/><text font-size="3.7492857142857137" fill="black"><tspan x="4" y="16.619047619047617">T1555.005:</tspan><tspan x="4" y="31.285714285714285">Password</tspan><tspan x="4" y="45.95238095238095">Managers</tspan></text></g><g class="subtechnique T1552.008" transform="translate(15, 230.28571428571428)"><rect class="cell" height="57.57142857142857" width="59.71428571428571" fill="#31a354" stroke="#6B7279"/><rect class="cell" height="57.57142857142857" width="3" transform="translate(-3, 0)" fill="#6B7279" stroke="#6B7279"/><text font-size="3.7492857142857137" fill="black"><tspan x="4" y="16.619047619047617">T1552.008:</tspan><tspan x="4" y="31.285714285714285">Chat</tspan><tspan x="4" y="45.95238095238095">Messages</tspan></text></g></g><g class="tactic-label"><text font-size="6.909693877551019" fill="black" font-weight="bold"><tspan text-anchor="middle" x="37.357142857142854" y="24.035714285714285">Credential</tspan><tspan text-anchor="middle" x="37.357142857142854" y="38.535714285714285">Access</tspan></text></g></g><g class="tactic discovery" transform="translate(597.7142857142857, 0)"><g class="techniques"><g class="technique T1046" transform="translate(0, 57.57142857142857)"><rect class="cell" height="57.57142857142857" width="74.71428571428571" fill="#31a354" stroke="#6B7279"/><polygon class="sidebar" transform="translate(0, 57.57142857142857)" points="0,0 12,0 12,0" fill="#6B7279" visibility="hidden"/><text font-size="3.7492857142857137" fill="black"><tspan x="4" y="11.071428571428571">T1046:</tspan><tspan x="4" y="25.214285714285715">Network</tspan><tspan x="4" y="39.357142857142854">Service</tspan><tspan x="4" y="53.5">Discovery</tspan></text></g><g class="technique T1135" transform="translate(0, 115.14285714285714)"><rect class="cell" height="57.57142857142857" width="74.71428571428571" fill="#31a354" stroke="#6B7279"/><polygon class="sidebar" transform="translate(0, 57.57142857142857)" points="0,0 12,0 12,0" fill="#6B7279" visibility="hidden"/><text font-size="3.7492857142857137" fill="black"><tspan x="4" y="11.071428571428571">T1135:</tspan><tspan x="4" y="25.214285714285715">Network</tspan><tspan x="4" y="39.357142857142854">Share</tspan><tspan x="4" y="53.5">Discovery</tspan></text></g><g class="technique T1016" transform="translate(0, 172.7142857142857)"><rect class="cell" height="57.57142857142857" width="74.71428571428571" fill="#31a354" stroke="#6B7279"/><polygon class="sidebar" transform="translate(0, 57.57142857142857)" points="0,0 12,0 12,12" fill="#6B7279" visibility="visible"/><text font-size="3.7492857142857137" fill="black"><tspan x="4" y="10.071428571428571">T1016: System</tspan><tspan x="4" y="24.214285714285715">Network</tspan><tspan x="4" y="38.357142857142854">Configuration</tspan><tspan x="4" y="52.5">Discovery</tspan></text></g></g><g class="subtechniques"><g class="subtechnique T1016.001" transform="translate(15, 230.28571428571428)"><rect class="cell" height="57.57142857142857" width="59.71428571428571" fill="#31a354" stroke="#6B7279"/><rect class="cell" height="57.57142857142857" width="3" transform="translate(-3, 0)" fill="#6B7279" stroke="#6B7279"/><text font-size="3.7492857142857137" fill="black"><tspan x="4" y="10.071428571428571">T1016.001:</tspan><tspan x="4" y="24.214285714285715">Internet</tspan><tspan x="4" y="38.357142857142854">Connection</tspan><tspan x="4" y="52.5">Discovery</tspan></text></g></g><g class="tactic-label"><text font-size="6.909693877551019" fill="black" font-weight="bold"><tspan text-anchor="middle" x="37.357142857142854" y="32.285714285714285">Discovery</tspan></text></g></g><g class="tactic lateral-movement" transform="translate(672.4285714285713, 0)"><g class="techniques"><g class="technique T1210" transform="translate(0, 57.57142857142857)"><rect class="cell" height="57.57142857142857" width="74.71428571428571" fill="#31a354" stroke="#6B7279"/><polygon class="sidebar" transform="translate(0, 57.57142857142857)" points="0,0 12,0 12,0" fill="#6B7279" visibility="hidden"/><text font-size="3.7492857142857137" fill="black"><tspan x="4" y="10.071428571428571">T1210:</tspan><tspan x="4" y="24.214285714285715">Exploitation</tspan><tspan x="4" y="38.357142857142854">of Remote</tspan><tspan x="4" y="52.5">Services</tspan></text></g><g class="technique T1021" transform="translate(0, 115.14285714285714)"><rect class="cell" height="57.57142857142857" width="74.71428571428571" fill="#31a354" stroke="#6B7279"/><polygon class="sidebar" transform="translate(0, 57.57142857142857)" points="0,0 12,0 12,12" fill="#6B7279" visibility="visible"/><text font-size="3.7492857142857137" fill="black"><tspan x="4" y="17.619047619047617">T1021:</tspan><tspan x="4" y="32.285714285714285">Remote</tspan><tspan x="4" y="46.95238095238095">Services</tspan></text></g></g><g class="subtechniques"><g class="subtechnique T1021.001" transform="translate(15, 172.7142857142857)"><rect class="cell" height="57.57142857142857" width="59.71428571428571" fill="#31a354" stroke="#6B7279"/><rect class="cell" height="57.57142857142857" width="3" transform="translate(-3, 0)" fill="#6B7279" stroke="#6B7279"/><text font-size="3.7492857142857137" fill="black"><tspan x="4" y="10.071428571428571">T1021.001:</tspan><tspan x="4" y="24.214285714285715">Remote</tspan><tspan x="4" y="38.357142857142854">Desktop</tspan><tspan x="4" y="52.5">Protocol</tspan></text></g><g class="subtechnique T1021.004" transform="translate(15, 230.28571428571428)"><rect class="cell" height="57.57142857142857" width="59.71428571428571" fill="#31a354" stroke="#6B7279"/><rect class="cell" height="57.57142857142857" width="3" transform="translate(-3, 0)" fill="#6B7279" stroke="#6B7279"/><text font-size="3.7492857142857137" fill="black"><tspan x="4" y="24.035714285714285">T1021.004:</tspan><tspan x="4" y="38.535714285714285">SSH</tspan></text></g></g><g class="tactic-label"><text font-size="6.909693877551019" fill="black" font-weight="bold"><tspan text-anchor="middle" x="37.357142857142854" y="25.035714285714285">Lateral</tspan><tspan text-anchor="middle" x="37.357142857142854" y="39.535714285714285">Movement</tspan></text></g></g><g class="tactic collection" transform="translate(747.1428571428571, 0)"><g class="techniques"><g class="technique T1560" transform="translate(0, 57.57142857142857)"><rect class="cell" height="57.57142857142857" width="74.71428571428571" fill="#31a354" stroke="#6B7279"/><polygon class="sidebar" transform="translate(0, 57.57142857142857)" points="0,0 12,0 12,12" fill="#6B7279" visibility="visible"/><text font-size="3.7492857142857137" fill="black"><tspan x="4" y="11.071428571428571">T1560:</tspan><tspan x="4" y="25.214285714285715">Archive</tspan><tspan x="4" y="39.357142857142854">Collected</tspan><tspan x="4" y="53.5">Data</tspan></text></g><g class="technique T1119" transform="translate(0, 172.7142857142857)"><rect class="cell" height="57.57142857142857" width="74.71428571428571" fill="#31a354" stroke="#6B7279"/><polygon class="sidebar" transform="translate(0, 57.57142857142857)" points="0,0 12,0 12,0" fill="#6B7279" visibility="hidden"/><text font-size="3.7492857142857137" fill="black"><tspan x="4" y="16.619047619047617">T1119:</tspan><tspan x="4" y="31.285714285714285">Automated</tspan><tspan x="4" y="45.95238095238095">Collection</tspan></text></g><g class="technique T1213" transform="translate(0, 230.28571428571428)"><rect class="cell" height="57.57142857142857" width="74.71428571428571" fill="#31a354" stroke="#6B7279"/><polygon class="sidebar" transform="translate(0, 57.57142857142857)" points="0,0 12,0 12,12" fill="#6B7279" visibility="visible"/><text font-size="3.7492857142857137" fill="black"><tspan x="4" y="10.071428571428571">T1213:</tspan><tspan x="4" y="24.214285714285715">Data from</tspan><tspan x="4" y="38.357142857142854">Information</tspan><tspan x="4" y="52.5">Repositories</tspan></text></g><g class="technique T1005" transform="translate(0, 403)"><rect class="cell" height="57.57142857142857" width="74.71428571428571" fill="#31a354" stroke="#6B7279"/><polygon class="sidebar" transform="translate(0, 57.57142857142857)" points="0,0 12,0 12,0" fill="#6B7279" visibility="hidden"/><text font-size="3.7492857142857137" fill="black"><tspan x="4" y="11.071428571428571">T1005:</tspan><tspan x="4" y="25.214285714285715">Data from</tspan><tspan x="4" y="39.357142857142854">Local</tspan><tspan x="4" y="53.5">System</tspan></text></g><g class="technique T1039" transform="translate(0, 460.57142857142856)"><rect class="cell" height="57.57142857142857" width="74.71428571428571" fill="#31a354" stroke="#6B7279"/><polygon class="sidebar" transform="translate(0, 57.57142857142857)" points="0,0 12,0 12,0" fill="#6B7279" visibility="hidden"/><text font-size="3.7492857142857137" fill="black"><tspan x="4" y="16.619047619047617">T1039: Data</tspan><tspan x="4" y="31.285714285714285">from Network</tspan><tspan x="4" y="45.95238095238095">Shared Drive</tspan></text></g><g class="technique T1074" transform="translate(0, 518.1428571428572)"><rect class="cell" height="57.57142857142857" width="74.71428571428571" fill="#31a354" stroke="#6B7279"/><polygon class="sidebar" transform="translate(0, 57.57142857142857)" points="0,0 12,0 12,12" fill="#6B7279" visibility="visible"/><text font-size="3.7492857142857137" fill="black"><tspan x="4" y="17.619047619047617">T1074:</tspan><tspan x="4" y="32.285714285714285">Data</tspan><tspan x="4" y="46.95238095238095">Staged</tspan></text></g><g class="technique T1114" transform="translate(0, 633.2857142857142)"><rect class="cell" height="57.57142857142857" width="74.71428571428571" fill="#31a354" stroke="#6B7279"/><polygon class="sidebar" transform="translate(0, 57.57142857142857)" points="0,0 12,0 12,12" fill="#6B7279" visibility="visible"/><text font-size="3.7492857142857137" fill="black"><tspan x="4" y="16.619047619047617">T1114:</tspan><tspan x="4" y="31.285714285714285">Email</tspan><tspan x="4" y="45.95238095238095">Collection</tspan></text></g><g class="technique T1113" transform="translate(0, 748.4285714285714)"><rect class="cell" height="57.57142857142857" width="74.71428571428571" fill="#31a354" stroke="#6B7279"/><polygon class="sidebar" transform="translate(0, 57.57142857142857)" points="0,0 12,0 12,0" fill="#6B7279" visibility="hidden"/><text font-size="3.7492857142857137" fill="black"><tspan x="4" y="17.619047619047617">T1113:</tspan><tspan x="4" y="32.285714285714285">Screen</tspan><tspan x="4" y="46.95238095238095">Capture</tspan></text></g></g><g class="subtechniques"><g class="subtechnique T1560.001" transform="translate(15, 115.14285714285714)"><rect class="cell" height="57.57142857142857" width="59.71428571428571" fill="#31a354" stroke="#6B7279"/><rect class="cell" height="57.57142857142857" width="3" transform="translate(-3, 0)" fill="#6B7279" stroke="#6B7279"/><text font-size="3.7492857142857137" fill="black"><tspan x="4" y="10.071428571428571">T1560.001:</tspan><tspan x="4" y="24.214285714285715">Archive</tspan><tspan x="4" y="38.357142857142854">via</tspan><tspan x="4" y="52.5">Utility</tspan></text></g><g class="subtechnique T1213.003" transform="translate(15, 287.8571428571429)"><rect class="cell" height="57.57142857142857" width="59.71428571428571" fill="#31a354" stroke="#6B7279"/><rect class="cell" height="57.57142857142857" width="3" transform="translate(-3, 0)" fill="#6B7279" stroke="#6B7279"/><text font-size="3.7492857142857137" fill="black"><tspan x="4" y="15.619047619047617">T1213.003:</tspan><tspan x="4" y="30.285714285714285">Code</tspan><tspan x="4" y="44.95238095238095">Repositories</tspan></text></g><g class="subtechnique T1213.002" transform="translate(15, 345.4285714285714)"><rect class="cell" height="57.57142857142857" width="59.71428571428571" fill="#31a354" stroke="#6B7279"/><rect class="cell" height="57.57142857142857" width="3" transform="translate(-3, 0)" fill="#6B7279" stroke="#6B7279"/><text font-size="3.7492857142857137" fill="black"><tspan x="4" y="24.035714285714285">T1213.002:</tspan><tspan x="4" y="38.535714285714285">Sharepoint</tspan></text></g><g class="subtechnique T1074.001" transform="translate(15, 575.7142857142858)"><rect class="cell" height="57.57142857142857" width="59.71428571428571" fill="#31a354" stroke="#6B7279"/><rect class="cell" height="57.57142857142857" width="3" transform="translate(-3, 0)" fill="#6B7279" stroke="#6B7279"/><text font-size="3.7492857142857137" fill="black"><tspan x="4" y="16.619047619047617">T1074.001:</tspan><tspan x="4" y="31.285714285714285">Local Data</tspan><tspan x="4" y="45.95238095238095">Staging</tspan></text></g><g class="subtechnique T1114.001" transform="translate(15, 690.8571428571428)"><rect class="cell" height="57.57142857142857" width="59.71428571428571" fill="#31a354" stroke="#6B7279"/><rect class="cell" height="57.57142857142857" width="3" transform="translate(-3, 0)" fill="#6B7279" stroke="#6B7279"/><text font-size="3.7492857142857137" fill="black"><tspan x="4" y="10.071428571428571">T1114.001:</tspan><tspan x="4" y="24.214285714285715">Local</tspan><tspan x="4" y="38.357142857142854">Email</tspan><tspan x="4" y="52.5">Collection</tspan></text></g></g><g class="tactic-label"><text font-size="6.909693877551019" fill="black" font-weight="bold"><tspan text-anchor="middle" x="37.357142857142854" y="31.285714285714285">Collection</tspan></text></g></g><g class="tactic command-and-control" transform="translate(821.8571428571428, 0)"><g class="techniques"><g class="technique T1219" transform="translate(0, 57.57142857142857)"><rect class="cell" height="57.57142857142857" width="74.71428571428571" fill="#31a354" stroke="#6B7279"/><polygon class="sidebar" transform="translate(0, 57.57142857142857)" points="0,0 12,0 12,0" fill="#6B7279" visibility="hidden"/><text font-size="3.7492857142857137" fill="black"><tspan x="4" y="11.071428571428571">T1219:</tspan><tspan x="4" y="25.214285714285715">Remote</tspan><tspan x="4" y="39.357142857142854">Access</tspan><tspan x="4" y="53.5">Software</tspan></text></g></g><g class="subtechniques"/><g class="tactic-label"><text font-size="6.909693877551019" fill="black" font-weight="bold"><tspan text-anchor="middle" x="37.357142857142854" y="17.619047619047617">Command</tspan><tspan text-anchor="middle" x="37.357142857142854" y="32.285714285714285">and</tspan><tspan text-anchor="middle" x="37.357142857142854" y="46.95238095238095">Control</tspan></text></g></g><g class="tactic exfiltration" transform="translate(896.5714285714284, 0)"><g class="techniques"><g class="technique T1048" transform="translate(0, 57.57142857142857)"><rect class="cell" height="57.57142857142857" width="74.71428571428571" fill="#31a354" stroke="#6B7279"/><polygon class="sidebar" transform="translate(0, 57.57142857142857)" points="0,0 12,0 12,12" fill="#6B7279" visibility="visible"/><text font-size="3.7492857142857137" fill="black"><tspan x="4" y="9.071428571428571">T1048:</tspan><tspan x="4" y="23.214285714285715">Exfiltration</tspan><tspan x="4" y="37.357142857142854">Over Alternative</tspan><tspan x="4" y="51.5">Protocol</tspan></text></g><g class="technique T1011" transform="translate(0, 230.28571428571428)"><rect class="cell" height="57.57142857142857" width="74.71428571428571" fill="#31a354" stroke="#6B7279"/><polygon class="sidebar" transform="translate(0, 57.57142857142857)" points="0,0 12,0 12,12" fill="#6B7279" visibility="visible"/><text font-size="3.7492857142857137" fill="black"><tspan x="4" y="10.071428571428571">T1011:</tspan><tspan x="4" y="24.214285714285715">Exfiltration</tspan><tspan x="4" y="38.357142857142854">Over Other</tspan><tspan x="4" y="52.5">Network Medium</tspan></text></g><g class="technique T1052" transform="translate(0, 345.4285714285714)"><rect class="cell" height="57.57142857142857" width="74.71428571428571" fill="#31a354" stroke="#6B7279"/><polygon class="sidebar" transform="translate(0, 57.57142857142857)" points="0,0 12,0 12,12" fill="#6B7279" visibility="visible"/><text font-size="3.7492857142857137" fill="black"><tspan x="4" y="10.071428571428571">T1052:</tspan><tspan x="4" y="24.214285714285715">Exfiltration</tspan><tspan x="4" y="38.357142857142854">Over Physical</tspan><tspan x="4" y="52.5">Medium</tspan></text></g><g class="technique T1567" transform="translate(0, 460.57142857142856)"><rect class="cell" height="57.57142857142857" width="74.71428571428571" fill="#31a354" stroke="#6B7279"/><polygon class="sidebar" transform="translate(0, 57.57142857142857)" points="0,0 12,0 12,12" fill="#6B7279" visibility="visible"/><text font-size="3.7492857142857137" fill="black"><tspan x="4" y="10.071428571428571">T1567:</tspan><tspan x="4" y="24.214285714285715">Exfiltration</tspan><tspan x="4" y="38.357142857142854">Over</tspan><tspan x="4" y="52.5">Web Service</tspan></text></g><g class="technique T1537" transform="translate(0, 575.7142857142858)"><rect class="cell" height="57.57142857142857" width="74.71428571428571" fill="#31a354" stroke="#6B7279"/><polygon class="sidebar" transform="translate(0, 57.57142857142857)" points="0,0 12,0 12,0" fill="#6B7279" visibility="hidden"/><text font-size="3.7492857142857137" fill="black"><tspan x="4" y="10.071428571428571">T1537:</tspan><tspan x="4" y="24.214285714285715">Transfer</tspan><tspan x="4" y="38.357142857142854">Data to</tspan><tspan x="4" y="52.5">Cloud Account</tspan></text></g></g><g class="subtechniques"><g class="subtechnique T1048.002" transform="translate(15, 115.14285714285714)"><rect class="cell" height="57.57142857142857" width="59.71428571428571" fill="#31a354" stroke="#6B7279"/><rect class="cell" height="57.57142857142857" width="3" transform="translate(-3, 0)" fill="#6B7279" stroke="#6B7279"/><text font-size="3.7492857142857137" fill="black"><tspan x="4" y="9.071428571428571">T1048.002:</tspan><tspan x="4" y="23.214285714285715">Exfiltration Over</tspan><tspan x="4" y="37.357142857142854">Asymmetric Encrypted</tspan><tspan x="4" y="51.5">Non-C2 Protocol</tspan></text></g><g class="subtechnique T1048.001" transform="translate(15, 172.7142857142857)"><rect class="cell" height="57.57142857142857" width="59.71428571428571" fill="#31a354" stroke="#6B7279"/><rect class="cell" height="57.57142857142857" width="3" transform="translate(-3, 0)" fill="#6B7279" stroke="#6B7279"/><text font-size="3.7492857142857137" fill="black"><tspan x="4" y="9.071428571428571">T1048.001:</tspan><tspan x="4" y="23.214285714285715">Exfiltration Over</tspan><tspan x="4" y="37.357142857142854">Symmetric Encrypted</tspan><tspan x="4" y="51.5">Non-C2 Protocol</tspan></text></g><g class="subtechnique T1011.001" transform="translate(15, 287.8571428571429)"><rect class="cell" height="57.57142857142857" width="59.71428571428571" fill="#31a354" stroke="#6B7279"/><rect class="cell" height="57.57142857142857" width="3" transform="translate(-3, 0)" fill="#6B7279" stroke="#6B7279"/><text font-size="3.7492857142857137" fill="black"><tspan x="4" y="9.071428571428571">T1011.001:</tspan><tspan x="4" y="23.214285714285715">Exfiltration</tspan><tspan x="4" y="37.357142857142854">Over</tspan><tspan x="4" y="51.5">Bluetooth</tspan></text></g><g class="subtechnique T1052.001" transform="translate(15, 403)"><rect class="cell" height="57.57142857142857" width="59.71428571428571" fill="#31a354" stroke="#6B7279"/><rect class="cell" height="57.57142857142857" width="3" transform="translate(-3, 0)" fill="#6B7279" stroke="#6B7279"/><text font-size="3.7492857142857137" fill="black"><tspan x="4" y="15.619047619047617">T1052.001:</tspan><tspan x="4" y="30.285714285714285">Exfiltration</tspan><tspan x="4" y="44.95238095238095">over USB</tspan></text></g><g class="subtechnique T1567.002" transform="translate(15, 518.1428571428572)"><rect class="cell" height="57.57142857142857" width="59.71428571428571" fill="#31a354" stroke="#6B7279"/><rect class="cell" height="57.57142857142857" width="3" transform="translate(-3, 0)" fill="#6B7279" stroke="#6B7279"/><text font-size="3.7492857142857137" fill="black"><tspan x="4" y="9.071428571428571">T1567.002:</tspan><tspan x="4" y="23.214285714285715">Exfiltration</tspan><tspan x="4" y="37.357142857142854">to Cloud</tspan><tspan x="4" y="51.5">Storage</tspan></text></g></g><g class="tactic-label"><text font-size="6.909693877551019" fill="black" font-weight="bold"><tspan text-anchor="middle" x="37.357142857142854" y="31.285714285714285">Exfiltration</tspan></text></g></g><g class="tactic impact" transform="translate(971.2857142857142, 0)"><g class="techniques"><g class="technique T1485" transform="translate(0, 57.57142857142857)"><rect class="cell" height="57.57142857142857" width="74.71428571428571" fill="#31a354" stroke="#6B7279"/><polygon class="sidebar" transform="translate(0, 57.57142857142857)" points="0,0 12,0 12,0" fill="#6B7279" visibility="hidden"/><text font-size="3.7492857142857137" fill="black"><tspan x="4" y="24.035714285714285">T1485: Data</tspan><tspan x="4" y="38.535714285714285">Destruction</tspan></text></g><g class="technique T1565" transform="translate(0, 115.14285714285714)"><rect class="cell" height="57.57142857142857" width="74.71428571428571" fill="#31a354" stroke="#6B7279"/><polygon class="sidebar" transform="translate(0, 57.57142857142857)" points="0,0 12,0 12,12" fill="#6B7279" visibility="visible"/><text font-size="3.7492857142857137" fill="black"><tspan x="4" y="24.035714285714285">T1565: Data</tspan><tspan x="4" y="38.535714285714285">Manipulation</tspan></text></g><g class="technique T1561" transform="translate(0, 230.28571428571428)"><rect class="cell" height="57.57142857142857" width="74.71428571428571" fill="#31a354" stroke="#6B7279"/><polygon class="sidebar" transform="translate(0, 57.57142857142857)" points="0,0 12,0 12,12" fill="#6B7279" visibility="visible"/><text font-size="3.7492857142857137" fill="black"><tspan x="4" y="17.619047619047617">T1561:</tspan><tspan x="4" y="32.285714285714285">Disk</tspan><tspan x="4" y="46.95238095238095">Wipe</tspan></text></g><g class="technique T1657" transform="translate(0, 345.4285714285714)"><rect class="cell" height="57.57142857142857" width="74.71428571428571" fill="#31a354" stroke="#6B7279"/><polygon class="sidebar" transform="translate(0, 57.57142857142857)" points="0,0 12,0 12,0" fill="#6B7279" visibility="hidden"/><text font-size="3.7492857142857137" fill="black"><tspan x="4" y="17.619047619047617">T1657:</tspan><tspan x="4" y="32.285714285714285">Financial</tspan><tspan x="4" y="46.95238095238095">Theft</tspan></text></g><g class="technique T1496" transform="translate(0, 403)"><rect class="cell" height="57.57142857142857" width="74.71428571428571" fill="#31a354" stroke="#6B7279"/><polygon class="sidebar" transform="translate(0, 57.57142857142857)" points="0,0 12,0 12,0" fill="#6B7279" visibility="hidden"/><text font-size="3.7492857142857137" fill="black"><tspan x="4" y="17.619047619047617">T1496:</tspan><tspan x="4" y="32.285714285714285">Resource</tspan><tspan x="4" y="46.95238095238095">Hijacking</tspan></text></g><g class="technique T1529" transform="translate(0, 460.57142857142856)"><rect class="cell" height="57.57142857142857" width="74.71428571428571" fill="#31a354" stroke="#6B7279"/><polygon class="sidebar" transform="translate(0, 57.57142857142857)" points="0,0 12,0 12,0" fill="#6B7279" visibility="hidden"/><text font-size="3.7492857142857137" fill="black"><tspan x="4" y="23.035714285714285">T1529: System</tspan><tspan x="4" y="37.535714285714285">Shutdown/Reboot</tspan></text></g></g><g class="subtechniques"><g class="subtechnique T1565.001" transform="translate(15, 172.7142857142857)"><rect class="cell" height="57.57142857142857" width="59.71428571428571" fill="#31a354" stroke="#6B7279"/><rect class="cell" height="57.57142857142857" width="3" transform="translate(-3, 0)" fill="#6B7279" stroke="#6B7279"/><text font-size="3.7492857142857137" fill="black"><tspan x="4" y="15.619047619047617">T1565.001:</tspan><tspan x="4" y="30.285714285714285">Stored Data</tspan><tspan x="4" y="44.95238095238095">Manipulation</tspan></text></g><g class="subtechnique T1561.001" transform="translate(15, 287.8571428571429)"><rect class="cell" height="57.57142857142857" width="59.71428571428571" fill="#31a354" stroke="#6B7279"/><rect class="cell" height="57.57142857142857" width="3" transform="translate(-3, 0)" fill="#6B7279" stroke="#6B7279"/><text font-size="3.7492857142857137" fill="black"><tspan x="4" y="10.071428571428571">T1561.001:</tspan><tspan x="4" y="24.214285714285715">Disk</tspan><tspan x="4" y="38.357142857142854">Content</tspan><tspan x="4" y="52.5">Wipe</tspan></text></g></g><g class="tactic-label"><text font-size="6.909693877551019" fill="black" font-weight="bold"><tspan text-anchor="middle" x="37.357142857142854" y="32.285714285714285">Impact</tspan></text></g></g></g></g></g></svg>